<svg width="25" height="28" viewBox="0 0 25 28" fill="none" xmlns="http://www.w3.org/2000/svg">
<path d="M1 10.353L12.5 1.603L24 10.353V24.103C23.9963 24.435 23.9273 24.763 23.7969 25.0683C23.6665 25.3736 23.4772 25.6503 23.2398 25.8824C23.0025 26.1146 22.7217 26.2977 22.4136 26.4213C22.1055 26.545 21.776 26.6067 21.444 26.603H3.556C3.22401 26.6067 2.89455 26.545 2.58642 26.4213C2.27829 26.2977 1.99754 26.1146 1.76019 25.8824C1.52284 25.6503 1.33354 25.3736 1.20311 25.0683C1.07267 24.763 1.00366 24.435 1 24.103V10.353Z" stroke="#FF4970" stroke-width="2" stroke-linecap="round" stroke-linejoin="round"/>
<path d="M8.66699 26.603V14.103H16.334V26.603" stroke="#FF4970" stroke-width="2" stroke-linecap="round" stroke-linejoin="round"/>
</svg>
